# AST/ASF file generated using VICON BodyLanguage
# -----------------------------------------------
:version 1.10
:name VICON
:units
  mass 1.0
  length 0.45
  angle deg
:documentation
   .ast/.asf automatically generated from VICON data using
   VICON BodyBuilder and BodyLanguage model FoxedUp or BRILLIANT.MOD
:root
   order TX TY TZ RX RY RZ
   axis XYZ
   position 0 0 0  
   orientation 0 0 0 
:bonedata
  begin
     id 1 
     name lhipjoint
     direction 0.822369 -0.411937 0.392449 
     length 3.8167 
     axis 0 0 0  XYZ
  end
  begin
     id 2 
     name lfemur
     direction 0.34202 -0.939693 0  
     length 6.16791  
     axis 0 0 20  XYZ
    dof rx ry rz
    limits (-160.0 20.0)
           (-70.0 70.0)
           (-60.0 70.0)
  end
  begin
     id 3 
     name ltibia
     direction 0.34202 -0.939693 0   
     length 7.07101   
     axis 0 0 20   XYZ
    dof rx
    limits (-10.0 170.0)
  end
  begin
     id 4 
     name lfoot
     direction 0.028254 -0.0776273 0.996582   
     length 1.66799   
     axis -90 7.62852e-016 20   XYZ
    dof rx rz
    limits (-45.0 90.0)
           (-70.0 20.0)
  end
  begin
     id 5 
     name ltoes
     direction 1.53483e-011 -4.21688e-011 1   
     length 0.851674   
     axis -90 7.62852e-016 20   XYZ
    dof rx
    limits (-90.0 20.0)
  end
  begin
     id 6 
     name rhipjoint
     direction -0.822466 -0.411836 0.392353   
     length 3.81764  
     axis 0 0 0  XYZ 
  end
  begin
     id 7 
     name rfemur
     direction -0.34202 -0.939693 0   
     length 6.28636   
     axis 0 0 -20   XYZ
    dof rx ry rz
    limits (-160.0 20.0)
           (-70.0 70.0)
           (-70.0 60.0)
  end
  begin
     id 8 
     name rtibia
     direction -0.34202 -0.939693 0   
     length 6.85621   
     axis 0 0 -20   XYZ
    dof rx
    limits (-10.0 170.0)
 end
 begin
     id 9 
     name rfoot
     direction -0.0553036 -0.151945 0.98684   
     length 1.57293  
     axis -90 -7.62852e-016 -20   XYZ
    dof rx rz
    limits (-45.0 90.0)
           (-20.0 70.0)
  end
  begin
     id 10 
     name rtoes
     direction -1.53592e-011 -4.21964e-011 1   
     length 0.802812   
     axis -90 -7.62852e-016 -20   XYZ
    dof rx
    limits (-90.0 20.0)
  end
  begin
     id 11 
     name lowerback
     direction 0.00654913 0.996475 -0.0836396   
     length 1.97212   
     axis 0 0 0   XYZ
    dof rx ry rz
    limits (-20.0 45.0)
           (-30.0 30.0)
           (-30.0 30.0)
  end
  begin
     id 12 
     name upperback
     direction 0.0111875 0.994527 0.103877   
     length 1.89704   
     axis 0 0 0   XYZ
    dof rx ry rz
    limits (-20.0 45.0)
           (-30.0 30.0)
           (-30.0 30.0)
  end
  begin
     id 13 
     name thorax
     direction 0.00473652 0.989004 0.147814   
     length 1.94516   
     axis 0 0 0   XYZ
    dof rx ry rz
    limits (-20.0 45.0)
           (-30.0 30.0)
           (-30.0 30.0)
  end
  begin
     id 14 
     name lowerneck
     direction -0.00925808 0.999011 0.0434791   
     length 1.81771   
     axis 0 0 0   XYZ
    dof rx ry rz
    limits (-20.0 45.0)
           (-30.0 30.0)
           (-30.0 30.0)
  end
  begin
     id 15 
     name upperneck
     direction 0.00451595 0.964412 -0.264365   
     length 1.80434   
     axis 0 0 0   XYZ
    dof rx ry rz
    limits (-20.0 45.0)
           (-30.0 30.0)
           (-30.0 30.0)
  end
  begin
     id 16
     name head
     direction -0.00110849 0.995756 -0.0920241  
     length 1.84006  
     axis 0 0 0   XYZ
    dof rx ry rz
    limits (-20.0 45.0)
           (-30.0 30.0)
           (-30.0 30.0)
  end
  begin
     id 17 
     name lclavicle
     direction 0.921253 0.385213 0.0538957  
     length 3.67415  
     axis 0 0 0   XYZ
    dof ry rz
    limits (-20.0 10.0)
           (0.0 20.0)
  end
  begin
     id 18 
     name lhumerus
     direction 1 -4.48961e-011 6.73441e-028   
     length 4.32712   
     axis 180 -30 -90   XYZ
    dof rx ry rz
    limits (-60.0 90.0)
           (-90.0 90.0)
           (-90.0 90.0)
  end
  begin
     id 19
     name lradius
     direction 1 -4.48985e-011 -9.53507e-028   
     length 3.28587   
     axis 180 -30 -90   XYZ
    dof rx
    limits (-10.0 170.0)
  end
  begin
     id 20
     name lwrist
     direction 1 -4.48951e-011 -4.67472e-027   
     length 1.64293   
     axis 1.65735e-015 90 90   XYZ
    dof ry
    limits (-180.0 0.0)
 end
  begin
     id 21 
     name lhand
     direction 1 -4.48946e-011 -9.34945e-027   
     length 0.433158   
     axis 5.96574e-015 90 90   XYZ
    dof rx rz
    limits (-90.0 90.0)
           (-45.0 45.0)
  end
  begin
     id 22 
     name lfingers
     direction 1 -4.48882e-011 -1.86989e-026   
     length 0.349224   
     axis 1.19315e-014 90 90   XYZ
    dof rx
    limits (0.0 90.0)
  end
  begin
     id 23
     name lthumb
     direction 0.707107 -6.3493e-011 0.707107   
     length 0.501417   
     axis -90 45 2.85299e-015   XYZ
    dof rx rz
    limits (-45.0 45.0)
           (-45.0 45.0)
  end
  begin
     id 24 
     name rclavicle
     direction -0.884378 0.46502 -0.0403866   
     length 3.50218  
     axis 0 0 0   XYZ 
    dof ry rz
    limits (-10.0 20.0)
           (-20.0 0.0)
  end
  begin
     id 25 
     name rhumerus
     direction -1 -4.48964e-011 1.58188e-027  
     length 4.29104   
     axis 180 30 90   XYZ
    dof rx ry rz
    limits (-90.0 60.0)
           (-90.0 90.0)
           (-90.0 90.0)
  end
  begin
     id 26 
     name rradius
     direction -1 -4.48978e-011 -1.9722e-027   
     length 3.2272   
     axis 180 30 90   XYZ
    dof rx
    limits (-10.0 170.0)
  end
  begin
     id 27 
     name rwrist
     direction -1 -4.48969e-011 -4.67472e-027   
     length 1.6136   
     axis 1.65735e-015 -90 -90   XYZ
    dof ry
    limits (-180.0 0.0)
  end
  begin
     id 28
     name rhand
     direction -1 -4.48846e-011 -9.34945e-027   
     length 0.543623   
     axis 5.96574e-015 -90 -90   XYZ
    dof rx rz
    limits (-90.0 90.0)
           (-45.0 45.0)
  end
  begin
     id 29
     name rfingers
     direction -1 -4.49074e-011 -1.86989e-026   
     length 0.438283   
     axis 1.19315e-014 -90 -90   XYZ
    dof rx
    limits (0.0 90.0)
  end
  begin
     id 30
     name rthumb
     direction -0.707107 -6.34834e-011 0.707107   
     length 0.629289   
     axis -90 -45 -2.85299e-015   XYZ
    dof rx rz
    limits (-45.0 45.0)
           (-45.0 45.0)
  end
:hierarchy
  begin
    root lhipjoint rhipjoint lowerback
    lhipjoint lfemur
    lfemur ltibia
    ltibia lfoot
    lfoot ltoes
    rhipjoint rfemur
    rfemur rtibia
    rtibia rfoot
    rfoot rtoes
    lowerback upperback
    upperback thorax
    thorax lowerneck lclavicle rclavicle
    lowerneck upperneck
    upperneck head
    lclavicle lhumerus
    lhumerus lradius
    lradius lwrist
    lwrist lhand lthumb
    lhand lfingers
    rclavicle rhumerus
    rhumerus rradius
    rradius rwrist
    rwrist rhand rthumb
    rhand rfingers
  end

#!OML:ASF H:\GeneralSubjects\Female5\Project 1\Capture day 1\Session 1\Female5.ASF
:FULLY-SPECIFIED
:DEGREES
17
root 24.6837 15.5157 3.39749 76.3997 -86.9713 -68.8619
lowerback 5.41215 1.7338 0.325278
upperback -9.8509 2.40565 2.60147
thorax -13.9237 1.16548 2.30164
lowerneck -20.224 -0.951748 -3.47938
upperneck 40.2561 0.429447 -4.4062
head 18.708 -1.56275 -1.57564
rclavicle 1.04362e-014 2.38542e-015
rhumerus -44.4524 26.541 -87.4074
rradius 41.0837
rwrist -13.693
rhand -13.8565 -27.6079
rfingers 7.12502
rthumb 12.2675 -57.2281
lclavicle 1.04362e-014 2.38542e-015
lhumerus -58.3628 17.2714 66.7959
lradius 27.9822
lwrist -14.9388
lhand -22.6721 35.2871
lfingers 7.12502
lthumb 3.75978 65.2337
rfemur 9.56038 -3.45623 26.7698
rtibia 30.3316
rfoot 3.38566 -15.1012
rtoes -3.01193
lfemur -25.2437 -16.518 -25.8357
ltibia 19.1838
lfoot -12.8519 15.0412
ltoes -63.822
18
root 24.4052 15.5604 3.45467 72.0218 -87.8781 -64.8869
lowerback 5.70699 1.75408 -0.343709
upperback -9.71801 2.34398 2.38191
thorax -13.969 1.19747 2.43642
lowerneck -20.0879 -0.962889 -3.64535
upperneck 40.3492 0.526867 -4.57703
head 18.7349 -1.58531 -1.6127
rclavicle -1.98785e-016 -3.97569e-015
rhumerus -44.1877 26.8768 -87.3432
rradius 41.5025
rwrist -13.2887
rhand -14.2152 -27.332
rfingers 7.12502
rthumb 11.9216 -56.9725
lclavicle -1.98785e-016 -3.97569e-015
lhumerus -57.2477 15.9872 68.7748
lradius 29.2619
lwrist -13.2927
lhand -22.6742 34.113
lfingers 7.12502
lthumb 3.75777 64.0596
rfemur 7.23636 -4.52396 24.7239
rtibia 34.9508
rfoot 7.91629 -17.4665
rtoes -2.09495
lfemur -22.7786 -16.7344 -27.5631
ltibia 18.0991
lfoot -13.6345 14.8464
ltoes -63.8187
19
root 24.1417 15.5947 3.50141 65.8062 -88.7673 -58.9312
lowerback 5.93902 1.79504 -1.15375
upperback -9.60361 2.28987 2.20051
thorax -14.0078 1.24933 2.69355
lowerneck -19.8838 -0.91382 -3.76309
upperneck 40.2833 0.644583 -4.61027
head 18.6437 -1.56234 -1.57619
rclavicle -9.24349e-015 3.97569e-016
rhumerus -43.6922 27.4127 -87.2458
rradius 41.9671
rwrist -13.0088
rhand -14.9945 -27.4734
rfingers 7.12502
rthumb 11.17 -57.1561
lclavicle -9.24349e-015 3.97569e-016
lhumerus -56.1259 14.855 70.3925
lradius 30.586
lwrist -11.937
lhand -22.9785 33.5506
lfingers 7.12502
lthumb 3.4639 63.5022
rfemur 4.36336 -5.38608 23.0473
rtibia 39.5794
rfoot 8.82342 -18.8193
rtoes -9.33566
lfemur -20.728 -16.7358 -29.1435
ltibia 17.3173
lfoot -14.3943 14.6117
ltoes -63.8851
20
root 23.8901 15.6203 3.53842 41.2711 -89.617 -34.5722
lowerback 6.20524 1.81386 -1.96665
upperback -9.53063 2.19536 1.99317
thorax -14.1151 1.28024 2.93153
lowerneck -19.902 -0.803767 -3.85245
upperneck 40.64 0.765545 -4.45977
head 18.8651 -1.52706 -1.48504
rclavicle -6.75868e-015 -3.57812e-015
rhumerus -42.9752 28.0676 -87.1731
rradius 42.4791
rwrist -12.6939
rhand -15.5721 -27.9812
rfingers 7.12502
rthumb 10.6129 -57.6932
lclavicle -6.75868e-015 -3.57812e-015
lhumerus -55.0197 13.4771 71.8747
lradius 32.0245
lwrist -10.5974
lhand -23.2334 32.8845
lfingers 7.12502
lthumb 3.21773 62.84
rfemur 1.07552 -6.22454 21.6902
rtibia 44.116
rfoot 5.88187 -20.9816
rtoes -16.413
lfemur -18.9301 -16.4273 -30.6433
ltibia 16.6689
lfoot -14.9899 14.4374
ltoes -64.3037
21
root 23.6505 15.6379 3.56843 109.474 -90.5039 -102.737
lowerback 6.30045 1.79763 -2.61906
upperback -9.49934 2.06875 1.79992
thorax -14.1533 1.27784 3.10499
lowerneck -19.8009 -0.709014 -3.91495
upperneck 40.831 0.876753 -4.38048
head 18.9549 -1.49458 -1.42269
rclavicle -5.26779e-015 1.19271e-015
rhumerus -41.9973 28.6627 -86.9156
rradius 43.0322
rwrist -12.486
rhand -16.0461 -28.3205
rfingers 7.12502
rthumb 10.1557 -58.0554
lclavicle -5.26779e-015 1.19271e-015
lhumerus -53.8036 11.8593 73.3597
lradius 33.5313
lwrist -9.18989
lhand -23.5652 33.2228
lfingers 7.12502
lthumb 2.89723 63.1829
rfemur -2.61994 -7.05806 20.7863
rtibia 48.0618
rfoot 2.70202 -23.2571
rtoes -10.7106
lfemur -17.6041 -16.1483 -31.8675
ltibia 16.2412
lfoot -15.8071 13.9649
ltoes -64.3271
22
root 23.4183 15.649 3.59077 98.5265 -90.9132 -91.6235
lowerback 6.0021 1.81998 -3.17819
upperback -9.34764 2.03742 1.7776
thorax -13.8096 1.31544 3.40437
lowerneck -19.7292 -0.714723 -3.97049
upperneck 40.8986 0.925303 -4.50405
head 18.9814 -1.50751 -1.46601
rclavicle -1.37161e-014 -2.50469e-014
rhumerus -40.7401 29.2331 -86.241
rradius 43.7983
rwrist -12.7181
rhand -16.5235 -29.0372
rfingers 7.12502
rthumb 9.69513 -58.7941
lclavicle -1.37161e-014 -2.50469e-014
lhumerus -52.129 10.6293 74.6901
lradius 34.6475
lwrist -8.27241
lhand -23.9228 33.8759
lfingers 7.12502
lthumb 2.55195 63.8404
rfemur -6.49253 -7.58309 20.5125
rtibia 51.1014
rfoot -3.5961 -24.3964
rtoes -8.10252
lfemur -16.5199 -16.0311 -32.6747
ltibia 15.8184
lfoot -16.5474 13.3443
ltoes -64.0435
23
root 23.188 15.6528 3.60551 98.2568 -90.9969 -91.2436
lowerback 6.16958 1.7396 -3.1602
upperback -9.399 1.91759 1.71603
thorax -13.9615 1.25522 3.34559
lowerneck -19.6411 -0.627994 -3.95049
upperneck 41.2308 0.99414 -4.46092
head 19.1633 -1.49246 -1.45427
rclavicle 7.7526e-015 1.43125e-014
rhumerus -39.907 29.9032 -86.0639
rradius 44.7936
rwrist -12.8533
rhand -17.3441 -29.9015
rfingers 7.12502
rthumb 8.90334 -59.6937
lclavicle 7.7526e-015 1.43125e-014
lhumerus -50.8229 9.44568 75.4099
lradius 35.6056
lwrist -7.57262
lhand -24.189 33.983
lfingers 7.12502
lthumb 2.29482 63.9504
rfemur -10.2605 -7.7957 20.8319
rtibia 53.272
rfoot -9.97752 -23.7495
rtoes -1.90664
lfemur -15.4015 -15.9282 -33.1254
ltibia 15.3729
lfoot -16.8532 13.1283
ltoes -64.2287
24
root 22.9574 15.6518 3.61707 104.499 -90.9635 -97.5341
lowerback 6.61007 1.62682 -2.95963
upperback -9.41939 1.77672 1.66423
thorax -14.2396 1.16972 3.19536
lowerneck -19.7609 -0.532323 -3.91
upperneck 41.6462 1.06168 -4.35366
head 19.4584 -1.4677 -1.42272
rclavicle 5.1684e-015 -3.57812e-015
rhumerus -39.0381 30.6109 -85.8842
rradius 45.9475
rwrist -13.0279
rhand -19.0484 -28.9288
rfingers 7.12502
rthumb 7.25842 -58.7843
lclavicle 5.1684e-015 -3.57812e-015
lhumerus -49.5583 8.12149 76.0906
lradius 36.5617
lwrist -6.87733
lhand -24.7698 34.3638
lfingers 7.12502
lthumb 1.73393 64.3365
rfemur -13.7099 -7.9772 21.3762
rtibia 54.4538
rfoot -15.3429 -22.4594
rtoes -2.35597
lfemur -14.1176 -15.8703 -33.5052
ltibia 14.9905
lfoot -17.3205 13.0987
ltoes -64.5101
25
root 22.7235 15.652 3.62868 112.24 -91.0453 -105.482
lowerback 7.23793 1.51791 -3.07404
upperback -9.44883 1.59826 1.6344
thorax -14.6646 1.1051 3.2543
lowerneck -19.7958 -0.442558 -3.57864
upperneck 41.9962 1.07515 -4.44704
head 19.6944 -1.44259 -1.54934
rclavicle -5.36719e-015 6.36111e-015
rhumerus -38.3133 31.2441 -85.717
rradius 47.3078
rwrist -13.116
rhand -20.4272 -26.1877
rfingers 7.12502
rthumb 5.92734 -56.0848
lclavicle -5.36719e-015 6.36111e-015
lhumerus -48.312 7.06385 76.5313
lradius 37.1575
lwrist -6.40491
lhand -26.2491 33.1638
lfingers 7.12502
lthumb 0.305151 63.1433
rfemur -16.764 -8.12997 21.8062
rtibia 54.5546
rfoot -18.7134 -21.4162
rtoes -4.70697
lfemur -12.5169 -15.9639 -34.0262
ltibia 14.4319
lfoot -17.9715 12.9195
ltoes -64.3056
26
root 22.4931 15.657 3.63931 115.985 -91.3153 -109.494
lowerback 6.94465 1.55372 -3.31687
upperback -8.90553 1.65664 1.68222
thorax -13.8431 1.14977 3.43042
lowerneck -19.8854 -0.688086 -3.95685
upperneck 41.716 0.879062 -4.45512
head 19.5394 -1.56205 -1.51
rclavicle -4.87022e-015 -6.36111e-015
rhumerus -36.5017 31.6134 -84.3754
rradius 48.6891
rwrist -13.1214
rhand -20.61 -24.3299
rfingers 7.12502
rthumb 5.75091 -54.2319
lclavicle -4.87022e-015 -6.36111e-015
lhumerus -45.8032 6.57237 77.3885
lradius 37.125
lwrist -6.58684
lhand -25.9828 33.6655
lfingers 7.12502
lthumb 0.562355 63.6445
rfemur -19.5865 -8.20729 22.0275
rtibia 53.7763
rfoot -20.3726 -20.8214
rtoes -5.19169
lfemur -10.8166 -16.0488 -34.7386
ltibia 13.8364
lfoot -18.183 12.8103
ltoes -64.2452
27
root 22.2678 15.6645 3.65119 118.394 -91.6991 -112.198
lowerback 8.01864 1.39753 -3.46349
upperback -9.06641 1.36759 1.47383
thorax -14.6905 1.03357 3.32945
lowerneck -19.6539 -0.53315 -3.623
upperneck 41.8161 0.927258 -4.41987
head 19.5332 -1.49288 -1.54535
rclavicle 6.85807e-015 1.98785e-015
rhumerus -35.8146 32.1141 -84.3777
rradius 50.0095
rwrist -13.4215
rhand -20.0253 -25.0917
rfingers 7.12502
rthumb 6.31543 -54.9776
lclavicle 6.85807e-015 1.98785e-015
lhumerus -44.8053 5.60548 77.5256
lradius 37.6103
lwrist -6.56622
lhand -25.7921 35.1864
lfingers 7.12502
lthumb 0.746521 65.1648
rfemur -22.094 -8.21852 22.1271
rtibia 52.1507
rfoot -20.8959 -21.0689
rtoes -5.06103
lfemur -9.10863 -15.984 -35.5696
ltibia 13.2386
lfoot -18.1223 12.9525
ltoes -64.8449
28
root 22.0392 15.6695 3.66409 120.467 -92.0147 -114.568
lowerback 7.77261 1.51264 -4.29525
upperback -8.60579 1.46205 1.67415
thorax -14.0367 1.16622 4.00105
lowerneck -19.3911 -0.723748 -3.7119
upperneck 41.4407 0.640839 -4.3732
head 19.2134 -1.58738 -1.53711
rclavicle -7.65321e-015 -1.98785e-014
rhumerus -34.0537 32.2345 -82.8287
rradius 51.3887
rwrist -14.0904
rhand -20.0133 -26.2567
rfingers 7.12502
rthumb 6.32696 -56.1422
lclavicle -7.65321e-015 -1.98785e-014
lhumerus -42.7806 4.41002 78.7342
lradius 37.8439
lwrist -6.28375
lhand -26.1136 35.8127
lfingers 7.12502
lthumb 0.436065 65.792
rfemur -24.1662 -7.94203 22.2498
rtibia 49.6185
rfoot -21.9784 -20.9303
rtoes -5.41282
lfemur -7.3492 -15.9666 -36.3112
ltibia 12.5321
lfoot -18.2097 13.3044
ltoes -65.607
29
root 21.8084 15.6723 3.67431 124.484 -92.2365 -118.764
lowerback 10.0138 1.22145 -3.61072
upperback -9.45243 1.00381 1.26549
thorax -16.4232 0.905258 3.25324
lowerneck -19.3576 -0.50636 -3.67444
upperneck 42.4255 0.627708 -3.81655
head 19.8258 -1.56704 -1.33616
rclavicle 5.1684e-015 -7.95139e-015
rhumerus -34.5476 32.567 -83.9868
rradius 52.9027
rwrist -14.0349
rhand -21.2981 -25.6652
rfingers 7.12502
rthumb 5.08653 -55.5842
lclavicle 5.1684e-015 -7.95139e-015
lhumerus -42.8678 4.35996 77.7633
lradius 37.9921
lwrist -6.77637
lhand -26.0956 34.9171
lfingers 7.12502
lthumb 0.453405 64.8964
rfemur -25.9824 -7.25885 22.4151
rtibia 46.3686
rfoot -24.2222 -19.9875
rtoes -3.57414
lfemur -5.78074 -16.2705 -36.8705
ltibia 11.9845
lfoot -18.7225 13.5954
ltoes -65.9743
